# xmcd
#
# Track frame offsets: 
#        150
#        12184
#        26521
#        41486
#        54167
#        69253
#        83378
#        96508
#        111125
#        124691
#        138259
#        152733
#        165378
#        178548
#        190857
#        203971
#        215894
#        228557
#        241888
#        255359
#        269350
#        281947
#
# Disc length: 3924 seconds
#
# Revision: 0
# Processed by: cddbd v1.5.2PL0 Copyright (c) Steve Scherf et al.
# Submitted via: ExactAudioCopy v0.95b4
#
DISCID=2a0f5216
DTITLE=Eddie Cleanhead Vinson - Primary Cuts Vol.1
DYEAR=2000
DGENRE=Blues
TTITLE0=When My Baby Left Me
TTITLE1=Cherry Red Blues
TTITLE2=Things Ain't What They Used To be
TTITLE3=Is You Is Or Is You Ain't My Baby
TTITLE4=Sombody's Gotta Go
TTITLE5=Juice Head baby
TTITLE6=When My Baby Left Me
TTITLE7=Mr Cleanhead Steps Out
TTITLE8=It's A Groovy Affair
TTITLE9=I've Been So Good
TTITLE10=Juice Head Baby
TTITLE11=Cherry Red Blues
TTITLE12=Somebody's Gotta Go
TTITLE13=Too Many Woman Blues
TTITLE14=Just A Dream
TTITLE15=Like To Be Home Blues
TTITLE16=Cleanhead Blues
TTITLE17=When A Woman Loves Her Juice
TTITLE18=Kidney Stew Blues
TTITLE19=King For A Day
TTITLE20=Old Maid Boogie
TTITLE21=Lazy Gal
EXTD=
EXTT0=
EXTT1=
EXTT2=
EXTT3=
EXTT4=
EXTT5=
EXTT6=
EXTT7=
EXTT8=
EXTT9=
EXTT10=
EXTT11=
EXTT12=
EXTT13=
EXTT14=
EXTT15=
EXTT16=
EXTT17=
EXTT18=
EXTT19=
EXTT20=
EXTT21=
PLAYORDER=
